<svg xmlns:dc="http://purl.org/dc/elements/1.1/" xmlns:cc="http://creativecommons.org/ns#" xmlns:rdf="http://www.w3.org/1999/02/22-rdf-syntax-ns#" xmlns:svg="http://www.w3.org/2000/svg" xmlns="http://www.w3.org/2000/svg" xmlns:xlink="http://www.w3.org/1999/xlink" id="svg272597" viewBox="0 0 1024 768" height="768px" width="1024px" version="1.1">
  <g id="logo-group">
    <g id="logo-center" transform="translate(0 0)">
      <g id="title" style="font-style:normal;font-weight:400;font-size:72px;line-height:1;font-family:'Brandmark Dots 1 Color';font-variant-ligatures:normal;text-align:center;text-anchor:middle" transform="translate(0 0)">
        <g id="path272606" aria-label="P" transform="translate(0 310.276) translate(218.96887999999996 45.751999999999995) scale(1.11) translate(-288.90969 50.4)"> <path class="c1" d="M116.52588,101.7917c-1.36816,2.23242-4.32031,2.95215-6.55273,1.51172 c-2.30469-1.36719-2.95215-4.32031-1.58398-6.55176c0.86426-1.44043,1.44043-3.09668,1.44043-4.6084 c0-1.87207-0.43262-7.77734-6.19336-7.77734H90.24365v36.0752c0,2.59277-2.16016,4.75293-4.82422,4.75293 c-2.59277,0-4.75293-2.16016-4.75293-4.75293V79.5417c0-2.5918,2.16016-4.75195,4.75293-4.75195h18.2168 c10.80176,0,15.69727,9,15.69727,17.35352C119.3335,95.3835,118.32568,98.83955,116.52588,101.7917z" transform="translate(208.24319 -125.18975)" stroke-width="0" stroke-linejoin="miter" stroke-miterlimit="2" fill="#050c0a" stroke="#050c0a"></path> <path class="c3" d="M99.74854,109.35225c-2.59277,0-4.75293-2.16016-4.75293-4.82422c0-2.5918,2.16016-4.75195,4.75293-4.75195 c2.66406,0,4.75195,2.16016,4.75195,4.75195C104.50049,107.19209,102.4126,109.35225,99.74854,109.35225z" transform="translate(208.24319 -125.18975)" stroke-width="0" stroke-linejoin="miter" stroke-miterlimit="2" fill="#389631" stroke="#389631"></path> </g>
        <g id="path272608" aria-label="U" transform="translate(0 310.276) translate(281.78585569999996 45.751999999999995) scale(1.11) translate(-335.50156 50.4)"> <path class="c1" d="M121.96191,103.95186c0,10.87305-6.84082,22.53809-21.96191,22.53809 c-13.10547,0-21.96191-9.07324-21.96191-22.53809V79.5417c0-2.5918,2.16016-4.75195,4.75293-4.75195 c2.66406,0,4.82422,2.16016,4.82422,4.75195v24.41016c0,3.95996,1.15137,12.96094,12.38477,12.96094 c9.14453,0,12.38477-6.69629,12.38477-12.96094V93.8708c0-2.5918,2.16016-4.75195,4.8252-4.75195 c2.5918,0,4.75195,2.16016,4.75195,4.75195V103.95186z" transform="translate(257.46347 -125.18975)" stroke-width="0" stroke-linejoin="miter" stroke-miterlimit="2" fill="#050c0a" stroke="#050c0a"></path> <path class="c3" d="M112.38477,79.5417c0-2.5918,2.16016-4.75195,4.8252-4.75195c2.5918,0,4.75195,2.16016,4.75195,4.75195 c0,2.66406-2.16016,4.82422-4.75195,4.82422C114.54492,84.36592,112.38477,82.20576,112.38477,79.5417z" transform="translate(257.46347 -125.18975)" stroke-width="0" stroke-linejoin="miter" stroke-miterlimit="2" fill="#389631" stroke="#389631"></path> </g>
        <g id="path272610" aria-label="B" transform="translate(0 310.276) translate(354.80512999999996 45.751999999999995) scale(1.11) translate(-391.28469 50.4)"> <path class="c1" d="M111.62915,97.75948c2.16016-1.72852,4.39209-5.97656,4.39209-10.44141 c0-6.83984-5.32813-12.52832-15.33691-12.52832H85.77905h-0.07227c-2.59229,0-4.75244,2.16016-4.75244,4.75195v40.89941 c0,2.66406,2.16016,4.75293,4.75244,4.75293c2.66406,0,4.82471-2.08887,4.82471-4.75293v-16.84961h10.44092 c4.53613,0,8.49658,2.37695,8.49658,6.04883c0,2.23242-0.79199,3.60059-1.08008,4.89648 c-0.57617,2.23242,0,4.03223,2.16016,5.18457c2.3042,1.22363,5.18457,0.50391,6.48047-1.7998 c1.36816-2.37695,2.01611-5.04102,2.01611-8.35352C119.04565,104.38448,115.73364,99.70381,111.62915,97.75948z M99.96411,95.09541 h-9.43262V83.21455h9.43262c4.96826,0,7.20068,2.87988,7.20068,5.97656C107.16479,92.79073,104.0686,95.09541,99.96411,95.09541z" transform="translate(310.33035 -125.18975)" stroke-width="0" stroke-linejoin="miter" stroke-miterlimit="2" fill="#050c0a" stroke="#050c0a"></path> <path class="c3" d="M100.03589,125.19405c-2.66406,0-4.75244-2.16016-4.75244-4.75293 c0-2.66406,2.08838-4.82422,4.75244-4.82422c2.66455,0,4.75244,2.16016,4.75244,4.82422 C104.78833,123.03389,102.70044,125.19405,100.03589,125.19405z" transform="translate(310.33035 -125.18975)" stroke-width="0" stroke-linejoin="miter" stroke-miterlimit="2" fill="#389631" stroke="#389631"></path> </g>
        <g id="path272612" aria-label="R" transform="translate(0 310.276) translate(421.0062182 45.751999999999995) scale(1.11) translate(-440.92531 50.4)"> <path class="c1" d="M117.85791,90.84639c0-9.79199-6.69727-16.05664-16.99414-16.05664H85.3833 c-2.59277,0-4.75293,2.16016-4.75293,4.75195v40.89941c0,2.59277,2.16016,4.75293,4.75293,4.75293 c2.66406,0,4.82422-2.16016,4.82422-4.75293v-12.96094h10.44043l2.16016,3.45605c1.36816,2.23242,4.32031,2.88086,6.55273,1.44043 c4.39258-2.80859,0.86426-7.41699,0.86426-7.41699C115.19385,102.15205,117.85791,97.03975,117.85791,90.84639z M100.64795,99.19991H90.20752V84.07784h10.65625c4.96875,0,7.41699,2.95313,7.41699,7.34473 C108.28076,95.45479,106.33643,99.19991,100.64795,99.19991z" transform="translate(360.29494 -125.18975)" stroke-width="0" stroke-linejoin="miter" stroke-miterlimit="2" fill="#050c0a" stroke="#050c0a"></path> <path class="c3" d="M114.61768,125.12178c-2.59277,0-4.75293-2.16016-4.75293-4.75195c0-2.66504,2.16016-4.8252,4.75293-4.8252 c2.66406,0,4.75195,2.16016,4.75195,4.8252C119.36963,122.96162,117.28174,125.12178,114.61768,125.12178z" transform="translate(360.29494 -125.18975)" stroke-width="0" stroke-linejoin="miter" stroke-miterlimit="2" fill="#389631" stroke="#389631"></path> </g>
        <g id="path272614" aria-label="E" transform="translate(0 310.276) translate(486.270755 45.751999999999995) scale(1.11) translate(-489.72219 50.4)"> <path class="c1" d="M87.75879,125.19405c-2.5918,0-4.75195-2.16016-4.75195-4.75293V79.5417 c0-2.5918,2.16016-4.75195,4.75195-4.75195h9.9375c2.5918,0,4.75195,2.16016,4.75195,4.75195 c0,2.66406-2.16016,4.82422-4.75195,4.82422h-5.1123V95.3835h16.70508c2.66406,0,4.75195,1.94434,4.75195,4.6084 c0,2.5918-2.08789,4.53613-4.75195,4.53613H92.58398v11.08887h19.65723c2.66406,0,4.75195,2.16016,4.75195,4.82422 c0,2.59277-2.08789,4.75293-4.75195,4.75293H87.75879z" transform="translate(406.71535 -125.18975)" stroke-width="0" stroke-linejoin="miter" stroke-miterlimit="2" fill="#050c0a" stroke="#050c0a"></path> <path class="c3" d="M112.02539,84.36592c-2.66406,0-4.82422-2.16016-4.82422-4.82422c0-2.5918,2.16016-4.75195,4.82422-4.75195 c2.5918,0,4.75195,2.16016,4.75195,4.75195C116.77734,82.20576,114.61719,84.36592,112.02539,84.36592z" transform="translate(406.71535 -125.18975)" stroke-width="0" stroke-linejoin="miter" stroke-miterlimit="2" fill="#389631" stroke="#389631"></path> </g>
        <g id="path272616" aria-label="M" transform="translate(0 310.276) translate(548.2760432000001 45.76184236999999) scale(1.11) translate(-535.58281 50.391133)"> <path class="c1" d="M117.89355,95.59932l-14.04102,27.14648c-0.86426,1.51172-2.44824,2.44824-4.17676,2.44824 c-1.72754,0-3.31152-0.93652-4.17578-2.52051L82.10645,96.03096v24.41016c0,2.59277-2.16016,4.75293-4.82422,4.75293 c-2.59277,0-4.75293-2.16016-4.75293-4.75293V79.5417c0-2.16016,1.44043-4.03223,3.60059-4.6084 c2.08789-0.50391,4.32031,0.43262,5.3291,2.37598l18.28906,34.70703l18.79395-34.77832 c1.00781-1.87207,3.24023-2.80859,5.32813-2.30469c2.08789,0.57617,3.60059,2.44824,3.60059,4.6084v26.57031 c0,2.59277-2.16016,4.75293-4.82422,4.75293c-2.59277,0-4.75293-2.16016-4.75293-4.75293V95.59932z" transform="translate(463.05351 -125.18939)" stroke-width="0" stroke-linejoin="miter" stroke-miterlimit="2" fill="#050c0a" stroke="#050c0a"></path> <path class="c3" d="M122.64648,125.19405c-2.59277,0-4.75293-2.16016-4.75293-4.75293 c0-2.66406,2.16016-4.82422,4.75293-4.82422c2.66406,0,4.82422,2.16016,4.82422,4.82422 C127.4707,123.03389,125.31055,125.19405,122.64648,125.19405z" transform="translate(463.05351 -125.18939)" stroke-width="0" stroke-linejoin="miter" stroke-miterlimit="2" fill="#389631" stroke="#389631"></path> </g>
        <g id="path272618" aria-label="O" transform="translate(0 310.276) translate(631.5350675000002 44.31343999999999) scale(1.11) translate(-600.59094 51.696)"> <path class="c1" d="M99.96436,126.48994c-14.61719,0-26.49902-11.88086-26.49902-26.57031 c0-8.20898,3.74512-15.69727,10.22559-20.80957c2.01563-1.58398,5.04004-1.22461,6.69629,0.86426 c1.58398,2.01563,1.22363,5.04004-0.86426,6.69629c-4.10449,3.24023-6.48047,7.99219-6.48047,13.24902 c0,9.36035,7.56055,16.99316,16.92188,16.99316c9.36035,0,16.99316-7.63281,16.99316-16.99316 c0-5.25684-2.37598-10.00879-6.55273-13.24902c-2.08789-1.65625-2.44824-4.68066-0.79199-6.69629 c1.58398-2.08887,4.6084-2.44824,6.69629-0.86426c6.48047,5.1123,10.22559,12.60059,10.22559,20.80957 C126.53467,114.60909,114.58154,126.48994,99.96436,126.48994z" transform="translate(527.1256 -125.18887)" stroke-width="0" stroke-linejoin="miter" stroke-miterlimit="2" fill="#050c0a" stroke="#050c0a"></path> <path class="c3" d="M99.96436,73.49287c2.66406,0,4.82422,2.16016,4.82422,4.8252c0,2.5918-2.16016,4.75195-4.82422,4.75195 c-2.59277,0-4.75293-2.16016-4.75293-4.75195C95.21143,75.65303,97.37158,73.49287,99.96436,73.49287z" transform="translate(527.1256 -125.18887)" stroke-width="0" stroke-linejoin="miter" stroke-miterlimit="2" fill="#389631" stroke="#389631"></path> </g>
        <g id="path272620" aria-label="T" transform="translate(0 310.276) translate(703.5428432000001 45.751999999999995) scale(1.11) translate(-655.46281 50.4)"> <path class="c1" d="M104.75244,120.44112c0,2.59277-2.08789,4.75293-4.75293,4.75293 c-2.66406,0-4.75195-2.16016-4.75195-4.75293v-36.0752H84.80615c-2.5918,0-4.75195-2.16016-4.75195-4.82422 c0-2.5918,2.16016-4.75195,4.75195-4.75195h15.19336c2.88086,0,4.75293,2.16016,4.75293,4.75195V120.44112z" transform="translate(575.40861 -125.18975)" stroke-width="0" stroke-linejoin="miter" stroke-miterlimit="2" fill="#050c0a" stroke="#050c0a"></path> <path class="c3" d="M119.9458,79.5417c0,2.66406-2.16016,4.82422-4.75293,4.82422c-2.66406,0-4.82422-2.16016-4.82422-4.82422 c0-2.5918,2.16016-4.75195,4.82422-4.75195C117.78564,74.78975,119.9458,76.94991,119.9458,79.5417z" transform="translate(575.40861 -125.18975)" stroke-width="0" stroke-linejoin="miter" stroke-miterlimit="2" fill="#389631" stroke="#389631"></path> </g>
        <g id="path272622" aria-label="E" transform="translate(0 310.276) translate(767.30888 45.751999999999995) scale(1.11) translate(-702.90969 50.4)"> <path class="c1" d="M87.75879,125.19405c-2.5918,0-4.75195-2.16016-4.75195-4.75293V79.5417 c0-2.5918,2.16016-4.75195,4.75195-4.75195h9.9375c2.5918,0,4.75195,2.16016,4.75195,4.75195 c0,2.66406-2.16016,4.82422-4.75195,4.82422h-5.1123V95.3835h16.70508c2.66406,0,4.75195,1.94434,4.75195,4.6084 c0,2.5918-2.08789,4.53613-4.75195,4.53613H92.58398v11.08887h19.65723c2.66406,0,4.75195,2.16016,4.75195,4.82422 c0,2.59277-2.08789,4.75293-4.75195,4.75293H87.75879z" transform="translate(619.90285 -125.18975)" stroke-width="0" stroke-linejoin="miter" stroke-miterlimit="2" fill="#050c0a" stroke="#050c0a"></path> <path class="c3" d="M112.02539,84.36592c-2.66406,0-4.82422-2.16016-4.82422-4.82422c0-2.5918,2.16016-4.75195,4.82422-4.75195 c2.5918,0,4.75195,2.16016,4.75195,4.75195C116.77734,82.20576,114.61719,84.36592,112.02539,84.36592z" transform="translate(619.90285 -125.18975)" stroke-width="0" stroke-linejoin="miter" stroke-miterlimit="2" fill="#389631" stroke="#389631"></path> </g>
      </g>
    </g>
  </g>
</svg>