<?xml version="1.0"?>
<svg width="150" height="150" xmlns="http://www.w3.org/2000/svg" xmlns:svg="http://www.w3.org/2000/svg" version="1.1">
 <g class="layer">
  <title>Layer 1</title>
  <g id="logo-group">
   <ellipse cx="75" cy="75" fill="#ffffff" id="svg_21" rx="50" ry="50" stroke="#ffffff" stroke-width="5"/>
   <g id="path272606" transform="translate(0 3.28) matrix(1.11 0 0 1.11 -267.146 99.696)">
    <path class="c1" d="m116.53,101.79c-1.37,2.23 -4.32,2.95 -6.56,1.51c-2.3,-1.36 -2.95,-4.32 -1.58,-6.55c0.86,-1.44 1.44,-3.1 1.44,-4.61c0,-1.87 -0.43,-7.77 -6.19,-7.77l-13.4,0l0,36.07c0,2.59 -2.16,4.75 -4.82,4.75c-2.59,0 -4.75,-2.16 -4.75,-4.75l0,-40.9c0,-2.59 2.16,-4.75 4.75,-4.75l18.22,0c10.8,0 15.69,9 15.69,17.35c0,3.24 -1,6.7 -2.8,9.65z" fill="#050c0a" id="svg_1" stroke="#050c0a" stroke-miterlimit="2" stroke-width="0" transform="translate(208.24319 -125.18975)"/>
    <path class="c3" d="m99.75,109.35c-2.59,0 -4.75,-2.16 -4.75,-4.82c0,-2.59 2.16,-4.75 4.75,-4.75c2.66,0 4.75,2.16 4.75,4.75c0,2.66 -2.09,4.82 -4.75,4.82z" fill="#389631" id="svg_2" stroke="#389631" stroke-miterlimit="2" stroke-width="0" transform="translate(208.24319 -125.18975)"/>
   </g>
  </g>
 </g>
</svg>